<?xml version="1.0" standalone="no"?>
<!DOCTYPE svg PUBLIC "-//W3C//DTD SVG 20010904//EN"
 "http://www.w3.org/TR/2001/REC-SVG-20010904/DTD/svg10.dtd">
<svg version="1.0" xmlns="http://www.w3.org/2000/svg"
 width="32.000000pt" height="32.000000pt" viewBox="0 0 1320.000000 871.000000"
 preserveAspectRatio="xMidYMid meet">
<metadata>
Created by potrace 1.16, written by Peter Selinger 2001-2019
</metadata>
<g transform="translate(0.000000,871.000000) scale(0.100000,-0.100000)"
fill="#000000" stroke="none">
<path d="M156 8703 c-39 -10 -94 -52 -117 -90 l-24 -38 0 -4215 0 -4215 21
-40 c11 -22 41 -53 65 -70 l44 -30 6451 -3 6450 -2 55 27 c39 20 60 39 76 68
l23 40 0 4219 0 4219 -24 41 c-14 24 -42 52 -68 66 l-43 25 -6445 1 c-3545 1
-6454 -1 -6464 -3z m5136 -2783 c483 -83 874 -418 1022 -875 101 -311 99 -676
-5 -990 -69 -206 -166 -361 -325 -515 -144 -139 -293 -229 -486 -294 -163 -54
-273 -70 -457 -63 -182 6 -255 23 -400 95 -74 35 -112 63 -173 121 l-78 76 0
-612 0 -613 -405 0 -405 0 0 1825 0 1825 405 0 405 0 0 -121 0 -122 48 45
c210 196 522 276 854 218z m3250 1 c481 -83 873 -418 1022 -874 102 -312 98
-697 -10 -1010 -110 -316 -336 -573 -640 -725 -89 -45 -259 -99 -370 -118
-135 -23 -377 -15 -484 16 -136 39 -254 105 -342 189 l-78 76 0 -612 0 -613
-405 0 -405 0 0 1825 0 1825 405 0 405 0 0 -121 0 -122 48 45 c210 196 520
276 854 219z"/>
<path d="M4865 5220 c-242 -34 -422 -200 -486 -447 -25 -98 -27 -285 -4 -399
81 -409 501 -602 891 -410 216 107 334 321 334 604 -1 200 -61 356 -183 476
-40 39 -99 85 -132 103 -116 61 -289 91 -420 73z"/>
<path d="M8120 5220 c-187 -23 -354 -138 -437 -303 -53 -107 -73 -199 -73
-344 0 -156 19 -255 71 -360 147 -304 506 -410 835 -248 214 105 334 322 334
602 0 129 -20 219 -71 323 -50 102 -150 207 -244 257 -115 61 -279 89 -415 73z"/>
</g>
</svg>
